<svg width="94" height="18" viewBox="0 0 94 18" fill="none" xmlns="http://www.w3.org/2000/svg">
<path d="M9.672 0.248C11.384 0.248 12.68 0.639999 13.56 1.424C14.44 2.192 14.88 3.2 14.88 4.448C14.88 4.752 14.856 5.064 14.808 5.384C14.616 6.472 14.12 7.464 13.32 8.36C12.536 9.24 11.48 9.856 10.152 10.208L12.96 17H9.048L6.552 10.472H4.944L3.792 17H0.408L3.384 0.248H9.672ZM11.352 5.456C11.384 5.168 11.4 4.976 11.4 4.88C11.4 4.272 11.208 3.8 10.824 3.464C10.44 3.128 9.856 2.96 9.072 2.96H6.264L5.376 7.976H8.184C9.08 7.976 9.792 7.752 10.32 7.304C10.864 6.856 11.208 6.24 11.352 5.456ZM21.663 2.864L20.895 7.208H26.535L26.079 9.8H20.439L19.647 14.336H26.007L25.527 17H15.783L18.759 0.223999H28.479L28.023 2.864H21.663ZM39.4044 13.808H32.7084L31.0524 17H27.5244L36.5244 0.223999H40.4364L43.4844 17H39.9324L39.4044 13.808ZM38.9724 11.192L37.7724 4.088L34.0764 11.192H38.9724ZM49.5761 14.432H55.0961L54.6401 17H45.7361L48.7121 0.248H52.0721L49.5761 14.432ZM74.0216 13.808H67.3256L65.6696 17H62.1416L71.1416 0.223999H75.0536L78.1016 17H74.5496L74.0216 13.808ZM73.5896 11.192L72.3896 4.088L68.6936 11.192H73.5896ZM93.0973 0.248L91.0333 12.008C90.7453 13.64 90.0493 14.912 88.9453 15.824C87.8413 16.72 86.4973 17.168 84.9133 17.168C83.5053 17.168 82.3933 16.816 81.5773 16.112C80.7613 15.392 80.3533 14.384 80.3533 13.088C80.3533 12.736 80.3933 12.336 80.4733 11.888H83.8573C83.8253 12.048 83.8093 12.264 83.8093 12.536C83.8093 13.624 84.3373 14.168 85.3933 14.168C86.0013 14.168 86.4973 13.976 86.8813 13.592C87.2653 13.208 87.5213 12.68 87.6493 12.008L89.7133 0.248H93.0973Z" fill="#FE6767"/>
</svg>
